<mxfile host="Electron" modified="2023-11-29T09:39:19.402Z" agent="Mozilla/5.0 (Windows NT 10.0; Win64; x64) AppleWebKit/537.36 (KHTML, like Gecko) draw.io/22.0.3 Chrome/114.0.5735.289 Electron/25.8.4 Safari/537.36" etag="UrxBwl3AzT50jcj_yc6T" version="22.0.3" type="device">
  <diagram name="PÃ¡gina-1" id="bxs645qA0xhHUz6dcc5B">
    <mxGraphModel dx="1594" dy="1006" grid="1" gridSize="10" guides="1" tooltips="1" connect="1" arrows="1" fold="1" page="1" pageScale="1" pageWidth="1169" pageHeight="827" math="0" shadow="0">
      <root>
        <mxCell id="0" />
        <mxCell id="1" parent="0" />
        <mxCell id="5LKG15U1SQsA1e3KRrMz-1" value="Piloto" style="whiteSpace=wrap;html=1;align=center;fillColor=#dae8fc;strokeColor=#6c8ebf;" vertex="1" parent="1">
          <mxGeometry x="850" y="280" width="100" height="40" as="geometry" />
        </mxCell>
        <mxCell id="5LKG15U1SQsA1e3KRrMz-2" value="Gran_Premio" style="whiteSpace=wrap;html=1;align=center;fillColor=#dae8fc;strokeColor=#6c8ebf;" vertex="1" parent="1">
          <mxGeometry x="290" y="200" width="100" height="40" as="geometry" />
        </mxCell>
        <mxCell id="5LKG15U1SQsA1e3KRrMz-3" value="Categoria" style="whiteSpace=wrap;html=1;align=center;fillColor=#dae8fc;strokeColor=#6c8ebf;" vertex="1" parent="1">
          <mxGeometry x="570" y="200" width="100" height="40" as="geometry" />
        </mxCell>
        <mxCell id="5LKG15U1SQsA1e3KRrMz-4" value="Tiene" style="shape=rhombus;perimeter=rhombusPerimeter;whiteSpace=wrap;html=1;align=center;fillColor=#e1d5e7;strokeColor=#9673a6;" vertex="1" parent="1">
          <mxGeometry x="420" y="190" width="120" height="60" as="geometry" />
        </mxCell>
        <mxCell id="5LKG15U1SQsA1e3KRrMz-5" value="participa en" style="shape=rhombus;perimeter=rhombusPerimeter;whiteSpace=wrap;html=1;align=center;fillColor=#e1d5e7;strokeColor=#9673a6;" vertex="1" parent="1">
          <mxGeometry x="700" y="270" width="120" height="60" as="geometry" />
        </mxCell>
        <mxCell id="5LKG15U1SQsA1e3KRrMz-7" value="Sesion" style="whiteSpace=wrap;html=1;align=center;fillColor=#dae8fc;strokeColor=#6c8ebf;" vertex="1" parent="1">
          <mxGeometry x="570" y="360" width="100" height="40" as="geometry" />
        </mxCell>
        <mxCell id="5LKG15U1SQsA1e3KRrMz-9" value="ISA" style="strokeWidth=2;html=1;shape=mxgraph.flowchart.merge_or_storage;whiteSpace=wrap;fillColor=#f8cecc;strokeColor=#b85450;" vertex="1" parent="1">
          <mxGeometry x="1030" y="270" width="95" height="60" as="geometry" />
        </mxCell>
        <mxCell id="5LKG15U1SQsA1e3KRrMz-11" value="Privado" style="whiteSpace=wrap;html=1;align=center;fillColor=#dae8fc;strokeColor=#6c8ebf;" vertex="1" parent="1">
          <mxGeometry x="930" y="400" width="100" height="40" as="geometry" />
        </mxCell>
        <mxCell id="5LKG15U1SQsA1e3KRrMz-12" value="Oficial" style="whiteSpace=wrap;html=1;align=center;fillColor=#dae8fc;strokeColor=#6c8ebf;" vertex="1" parent="1">
          <mxGeometry x="1130" y="400" width="100" height="40" as="geometry" />
        </mxCell>
        <mxCell id="5LKG15U1SQsA1e3KRrMz-14" value="" style="endArrow=none;html=1;rounded=0;entryX=0.356;entryY=0.81;entryDx=0;entryDy=0;entryPerimeter=0;" edge="1" parent="1" source="5LKG15U1SQsA1e3KRrMz-11" target="5LKG15U1SQsA1e3KRrMz-9">
          <mxGeometry relative="1" as="geometry">
            <mxPoint x="820" y="460" as="sourcePoint" />
            <mxPoint x="980" y="460" as="targetPoint" />
          </mxGeometry>
        </mxCell>
        <mxCell id="5LKG15U1SQsA1e3KRrMz-17" value="" style="endArrow=none;html=1;rounded=0;entryX=0.625;entryY=0.81;entryDx=0;entryDy=0;entryPerimeter=0;" edge="1" parent="1" source="5LKG15U1SQsA1e3KRrMz-12" target="5LKG15U1SQsA1e3KRrMz-9">
          <mxGeometry relative="1" as="geometry">
            <mxPoint x="820" y="460" as="sourcePoint" />
            <mxPoint x="980" y="460" as="targetPoint" />
          </mxGeometry>
        </mxCell>
        <mxCell id="5LKG15U1SQsA1e3KRrMz-18" value="" style="endArrow=none;html=1;rounded=0;exitX=0.215;exitY=0.497;exitDx=0;exitDy=0;exitPerimeter=0;" edge="1" parent="1" source="5LKG15U1SQsA1e3KRrMz-9" target="5LKG15U1SQsA1e3KRrMz-1">
          <mxGeometry relative="1" as="geometry">
            <mxPoint x="820" y="460" as="sourcePoint" />
            <mxPoint x="980" y="460" as="targetPoint" />
          </mxGeometry>
        </mxCell>
        <mxCell id="5LKG15U1SQsA1e3KRrMz-21" value="" style="endArrow=none;html=1;rounded=0;" edge="1" parent="1" source="5LKG15U1SQsA1e3KRrMz-5" target="5LKG15U1SQsA1e3KRrMz-1">
          <mxGeometry relative="1" as="geometry">
            <mxPoint x="690" y="290" as="sourcePoint" />
            <mxPoint x="850" y="290" as="targetPoint" />
          </mxGeometry>
        </mxCell>
        <mxCell id="5LKG15U1SQsA1e3KRrMz-22" value="" style="endArrow=none;html=1;rounded=0;" edge="1" parent="1" source="5LKG15U1SQsA1e3KRrMz-7" target="5LKG15U1SQsA1e3KRrMz-5">
          <mxGeometry relative="1" as="geometry">
            <mxPoint x="690" y="290" as="sourcePoint" />
            <mxPoint x="850" y="290" as="targetPoint" />
          </mxGeometry>
        </mxCell>
        <mxCell id="5LKG15U1SQsA1e3KRrMz-24" value="" style="endArrow=none;html=1;rounded=0;" edge="1" parent="1" source="5LKG15U1SQsA1e3KRrMz-4" target="5LKG15U1SQsA1e3KRrMz-3">
          <mxGeometry relative="1" as="geometry">
            <mxPoint x="650" y="190" as="sourcePoint" />
            <mxPoint x="810" y="190" as="targetPoint" />
          </mxGeometry>
        </mxCell>
        <mxCell id="5LKG15U1SQsA1e3KRrMz-25" value="" style="endArrow=none;html=1;rounded=0;" edge="1" parent="1" source="5LKG15U1SQsA1e3KRrMz-2" target="5LKG15U1SQsA1e3KRrMz-4">
          <mxGeometry relative="1" as="geometry">
            <mxPoint x="720" y="140" as="sourcePoint" />
            <mxPoint x="880" y="140" as="targetPoint" />
          </mxGeometry>
        </mxCell>
        <mxCell id="5LKG15U1SQsA1e3KRrMz-29" value="Nombre" style="ellipse;whiteSpace=wrap;html=1;align=center;fillColor=#f5f5f5;fontColor=#333333;strokeColor=#666666;" vertex="1" parent="1">
          <mxGeometry x="750" y="160" width="100" height="40" as="geometry" />
        </mxCell>
        <mxCell id="5LKG15U1SQsA1e3KRrMz-30" value="Edad" style="ellipse;whiteSpace=wrap;html=1;align=center;fillColor=#f5f5f5;fontColor=#333333;strokeColor=#666666;" vertex="1" parent="1">
          <mxGeometry x="930" y="120" width="100" height="40" as="geometry" />
        </mxCell>
        <mxCell id="5LKG15U1SQsA1e3KRrMz-32" value="ID_piloto" style="ellipse;whiteSpace=wrap;html=1;align=center;fontStyle=4;fillColor=#f5f5f5;fontColor=#333333;strokeColor=#666666;" vertex="1" parent="1">
          <mxGeometry x="980" y="170" width="100" height="40" as="geometry" />
        </mxCell>
        <mxCell id="5LKG15U1SQsA1e3KRrMz-33" value="PASS_NUM" style="ellipse;whiteSpace=wrap;html=1;align=center;fontStyle=4;fillColor=#f5f5f5;fontColor=#333333;strokeColor=#666666;" vertex="1" parent="1">
          <mxGeometry x="820" y="120" width="100" height="40" as="geometry" />
        </mxCell>
        <mxCell id="5LKG15U1SQsA1e3KRrMz-34" value="" style="endArrow=none;html=1;rounded=0;" edge="1" parent="1" source="5LKG15U1SQsA1e3KRrMz-32" target="5LKG15U1SQsA1e3KRrMz-1">
          <mxGeometry relative="1" as="geometry">
            <mxPoint x="600" y="460" as="sourcePoint" />
            <mxPoint x="760" y="460" as="targetPoint" />
          </mxGeometry>
        </mxCell>
        <mxCell id="5LKG15U1SQsA1e3KRrMz-35" value="" style="endArrow=none;html=1;rounded=0;" edge="1" parent="1" source="5LKG15U1SQsA1e3KRrMz-30" target="5LKG15U1SQsA1e3KRrMz-1">
          <mxGeometry relative="1" as="geometry">
            <mxPoint x="600" y="460" as="sourcePoint" />
            <mxPoint x="760" y="460" as="targetPoint" />
          </mxGeometry>
        </mxCell>
        <mxCell id="5LKG15U1SQsA1e3KRrMz-36" value="" style="endArrow=none;html=1;rounded=0;" edge="1" parent="1" source="5LKG15U1SQsA1e3KRrMz-29" target="5LKG15U1SQsA1e3KRrMz-1">
          <mxGeometry relative="1" as="geometry">
            <mxPoint x="600" y="460" as="sourcePoint" />
            <mxPoint x="760" y="460" as="targetPoint" />
          </mxGeometry>
        </mxCell>
        <mxCell id="5LKG15U1SQsA1e3KRrMz-37" value="" style="endArrow=none;html=1;rounded=0;" edge="1" parent="1" source="5LKG15U1SQsA1e3KRrMz-33" target="5LKG15U1SQsA1e3KRrMz-1">
          <mxGeometry relative="1" as="geometry">
            <mxPoint x="600" y="460" as="sourcePoint" />
            <mxPoint x="760" y="460" as="targetPoint" />
          </mxGeometry>
        </mxCell>
        <mxCell id="5LKG15U1SQsA1e3KRrMz-38" value="Nombre" style="ellipse;whiteSpace=wrap;html=1;align=center;fillColor=#eeeeee;strokeColor=#36393d;" vertex="1" parent="1">
          <mxGeometry x="290" y="140" width="100" height="40" as="geometry" />
        </mxCell>
        <mxCell id="5LKG15U1SQsA1e3KRrMz-39" value="Longitud" style="ellipse;whiteSpace=wrap;html=1;align=center;fillColor=#f5f5f5;fontColor=#333333;strokeColor=#666666;" vertex="1" parent="1">
          <mxGeometry x="290" y="260" width="100" height="40" as="geometry" />
        </mxCell>
        <mxCell id="5LKG15U1SQsA1e3KRrMz-40" value="ID_Premio" style="ellipse;whiteSpace=wrap;html=1;align=center;fontStyle=4;fillColor=#f5f5f5;fontColor=#333333;strokeColor=#666666;" vertex="1" parent="1">
          <mxGeometry x="170" y="200" width="100" height="40" as="geometry" />
        </mxCell>
        <mxCell id="5LKG15U1SQsA1e3KRrMz-41" value="" style="endArrow=none;html=1;rounded=0;" edge="1" parent="1" source="5LKG15U1SQsA1e3KRrMz-3" target="5LKG15U1SQsA1e3KRrMz-5">
          <mxGeometry relative="1" as="geometry">
            <mxPoint x="480" y="290" as="sourcePoint" />
            <mxPoint x="640" y="290" as="targetPoint" />
          </mxGeometry>
        </mxCell>
        <mxCell id="5LKG15U1SQsA1e3KRrMz-42" value="ID_Sesion" style="ellipse;whiteSpace=wrap;html=1;align=center;fontStyle=4;fillColor=#f5f5f5;fontColor=#333333;strokeColor=#666666;" vertex="1" parent="1">
          <mxGeometry x="570" y="420" width="100" height="40" as="geometry" />
        </mxCell>
        <mxCell id="5LKG15U1SQsA1e3KRrMz-43" value="Descripcion" style="ellipse;whiteSpace=wrap;html=1;align=center;fillColor=#f5f5f5;fontColor=#333333;strokeColor=#666666;" vertex="1" parent="1">
          <mxGeometry x="450" y="360" width="100" height="40" as="geometry" />
        </mxCell>
        <mxCell id="5LKG15U1SQsA1e3KRrMz-44" value="" style="endArrow=none;html=1;rounded=0;" edge="1" parent="1" source="5LKG15U1SQsA1e3KRrMz-43" target="5LKG15U1SQsA1e3KRrMz-7">
          <mxGeometry relative="1" as="geometry">
            <mxPoint x="480" y="290" as="sourcePoint" />
            <mxPoint x="640" y="290" as="targetPoint" />
          </mxGeometry>
        </mxCell>
        <mxCell id="5LKG15U1SQsA1e3KRrMz-45" value="" style="endArrow=none;html=1;rounded=0;" edge="1" parent="1" source="5LKG15U1SQsA1e3KRrMz-42" target="5LKG15U1SQsA1e3KRrMz-7">
          <mxGeometry relative="1" as="geometry">
            <mxPoint x="480" y="290" as="sourcePoint" />
            <mxPoint x="640" y="290" as="targetPoint" />
          </mxGeometry>
        </mxCell>
        <mxCell id="5LKG15U1SQsA1e3KRrMz-46" value="" style="endArrow=none;html=1;rounded=0;" edge="1" parent="1" source="5LKG15U1SQsA1e3KRrMz-39" target="5LKG15U1SQsA1e3KRrMz-2">
          <mxGeometry relative="1" as="geometry">
            <mxPoint x="480" y="290" as="sourcePoint" />
            <mxPoint x="640" y="290" as="targetPoint" />
          </mxGeometry>
        </mxCell>
        <mxCell id="5LKG15U1SQsA1e3KRrMz-47" value="" style="endArrow=none;html=1;rounded=0;" edge="1" parent="1" source="5LKG15U1SQsA1e3KRrMz-40" target="5LKG15U1SQsA1e3KRrMz-2">
          <mxGeometry relative="1" as="geometry">
            <mxPoint x="480" y="290" as="sourcePoint" />
            <mxPoint x="640" y="290" as="targetPoint" />
          </mxGeometry>
        </mxCell>
        <mxCell id="5LKG15U1SQsA1e3KRrMz-48" value="" style="endArrow=none;html=1;rounded=0;" edge="1" parent="1" source="5LKG15U1SQsA1e3KRrMz-38" target="5LKG15U1SQsA1e3KRrMz-2">
          <mxGeometry relative="1" as="geometry">
            <mxPoint x="480" y="290" as="sourcePoint" />
            <mxPoint x="640" y="290" as="targetPoint" />
          </mxGeometry>
        </mxCell>
        <mxCell id="5LKG15U1SQsA1e3KRrMz-49" value="Nom_equipo" style="ellipse;whiteSpace=wrap;html=1;align=center;fillColor=#f5f5f5;fontColor=#333333;strokeColor=#666666;" vertex="1" parent="1">
          <mxGeometry x="810" y="400" width="100" height="40" as="geometry" />
        </mxCell>
        <mxCell id="5LKG15U1SQsA1e3KRrMz-50" value="Presupuesto" style="ellipse;whiteSpace=wrap;html=1;align=center;fillColor=#f5f5f5;fontColor=#333333;strokeColor=#666666;" vertex="1" parent="1">
          <mxGeometry x="930" y="460" width="100" height="40" as="geometry" />
        </mxCell>
        <mxCell id="5LKG15U1SQsA1e3KRrMz-51" value="Marca" style="ellipse;whiteSpace=wrap;html=1;align=center;fillColor=#f5f5f5;fontColor=#333333;strokeColor=#666666;" vertex="1" parent="1">
          <mxGeometry x="1250" y="400" width="100" height="40" as="geometry" />
        </mxCell>
        <mxCell id="5LKG15U1SQsA1e3KRrMz-52" value="CachÃ©" style="ellipse;whiteSpace=wrap;html=1;align=center;fillColor=#f5f5f5;fontColor=#333333;strokeColor=#666666;" vertex="1" parent="1">
          <mxGeometry x="1130" y="460" width="100" height="40" as="geometry" />
        </mxCell>
        <mxCell id="5LKG15U1SQsA1e3KRrMz-53" value="" style="endArrow=none;html=1;rounded=0;" edge="1" parent="1" source="5LKG15U1SQsA1e3KRrMz-49" target="5LKG15U1SQsA1e3KRrMz-11">
          <mxGeometry relative="1" as="geometry">
            <mxPoint x="860" y="410" as="sourcePoint" />
            <mxPoint x="1020" y="410" as="targetPoint" />
          </mxGeometry>
        </mxCell>
        <mxCell id="5LKG15U1SQsA1e3KRrMz-54" value="" style="endArrow=none;html=1;rounded=0;" edge="1" parent="1" source="5LKG15U1SQsA1e3KRrMz-50" target="5LKG15U1SQsA1e3KRrMz-11">
          <mxGeometry relative="1" as="geometry">
            <mxPoint x="860" y="410" as="sourcePoint" />
            <mxPoint x="1020" y="410" as="targetPoint" />
          </mxGeometry>
        </mxCell>
        <mxCell id="5LKG15U1SQsA1e3KRrMz-55" value="" style="endArrow=none;html=1;rounded=0;" edge="1" parent="1" source="5LKG15U1SQsA1e3KRrMz-52" target="5LKG15U1SQsA1e3KRrMz-12">
          <mxGeometry relative="1" as="geometry">
            <mxPoint x="860" y="410" as="sourcePoint" />
            <mxPoint x="1020" y="410" as="targetPoint" />
          </mxGeometry>
        </mxCell>
        <mxCell id="5LKG15U1SQsA1e3KRrMz-56" value="" style="endArrow=none;html=1;rounded=0;" edge="1" parent="1" source="5LKG15U1SQsA1e3KRrMz-51" target="5LKG15U1SQsA1e3KRrMz-12">
          <mxGeometry relative="1" as="geometry">
            <mxPoint x="860" y="410" as="sourcePoint" />
            <mxPoint x="1020" y="410" as="targetPoint" />
          </mxGeometry>
        </mxCell>
        <mxCell id="5LKG15U1SQsA1e3KRrMz-57" value="Posicion" style="ellipse;whiteSpace=wrap;html=1;align=center;fillColor=#eeeeee;strokeColor=#36393d;" vertex="1" parent="1">
          <mxGeometry x="570" y="140" width="100" height="40" as="geometry" />
        </mxCell>
        <mxCell id="5LKG15U1SQsA1e3KRrMz-58" value="" style="endArrow=none;html=1;rounded=0;" edge="1" parent="1" source="5LKG15U1SQsA1e3KRrMz-3" target="5LKG15U1SQsA1e3KRrMz-57">
          <mxGeometry relative="1" as="geometry">
            <mxPoint x="650" y="320" as="sourcePoint" />
            <mxPoint x="810" y="320" as="targetPoint" />
          </mxGeometry>
        </mxCell>
        <mxCell id="5LKG15U1SQsA1e3KRrMz-59" value="Mejor_tiempo" style="ellipse;whiteSpace=wrap;html=1;align=center;fillColor=#f5f5f5;fontColor=#333333;strokeColor=#666666;" vertex="1" parent="1">
          <mxGeometry x="690" y="360" width="100" height="40" as="geometry" />
        </mxCell>
        <mxCell id="5LKG15U1SQsA1e3KRrMz-60" value="" style="endArrow=none;html=1;rounded=0;" edge="1" parent="1" source="5LKG15U1SQsA1e3KRrMz-7" target="5LKG15U1SQsA1e3KRrMz-59">
          <mxGeometry relative="1" as="geometry">
            <mxPoint x="650" y="320" as="sourcePoint" />
            <mxPoint x="810" y="320" as="targetPoint" />
          </mxGeometry>
        </mxCell>
        <mxCell id="5LKG15U1SQsA1e3KRrMz-61" value="(1,n)" style="text;strokeColor=none;fillColor=none;spacingLeft=4;spacingRight=4;overflow=hidden;rotatable=0;points=[[0,0.5],[1,0.5]];portConstraint=eastwest;fontSize=12;whiteSpace=wrap;html=1;align=center;" vertex="1" parent="1">
          <mxGeometry x="530" y="185" width="40" height="30" as="geometry" />
        </mxCell>
        <mxCell id="5LKG15U1SQsA1e3KRrMz-63" value="(1,n)" style="text;strokeColor=none;fillColor=none;spacingLeft=4;spacingRight=4;overflow=hidden;rotatable=0;points=[[0,0.5],[1,0.5]];portConstraint=eastwest;fontSize=12;whiteSpace=wrap;html=1;align=center;" vertex="1" parent="1">
          <mxGeometry x="390" y="190" width="40" height="30" as="geometry" />
        </mxCell>
        <mxCell id="5LKG15U1SQsA1e3KRrMz-64" value="N:M" style="text;strokeColor=none;fillColor=none;spacingLeft=4;spacingRight=4;overflow=hidden;rotatable=0;points=[[0,0.5],[1,0.5]];portConstraint=eastwest;fontSize=12;whiteSpace=wrap;html=1;align=center;" vertex="1" parent="1">
          <mxGeometry x="460" y="160" width="40" height="30" as="geometry" />
        </mxCell>
        <mxCell id="5LKG15U1SQsA1e3KRrMz-65" value="(1,n)" style="text;strokeColor=none;fillColor=none;spacingLeft=4;spacingRight=4;overflow=hidden;rotatable=0;points=[[0,0.5],[1,0.5]];portConstraint=eastwest;fontSize=12;whiteSpace=wrap;html=1;align=center;" vertex="1" parent="1">
          <mxGeometry x="670" y="230" width="40" height="30" as="geometry" />
        </mxCell>
        <mxCell id="5LKG15U1SQsA1e3KRrMz-66" value="(1,n)" style="text;strokeColor=none;fillColor=none;spacingLeft=4;spacingRight=4;overflow=hidden;rotatable=0;points=[[0,0.5],[1,0.5]];portConstraint=eastwest;fontSize=12;whiteSpace=wrap;html=1;align=center;" vertex="1" parent="1">
          <mxGeometry x="630" y="330" width="40" height="30" as="geometry" />
        </mxCell>
        <mxCell id="5LKG15U1SQsA1e3KRrMz-67" value="(1,n)" style="text;strokeColor=none;fillColor=none;spacingLeft=4;spacingRight=4;overflow=hidden;rotatable=0;points=[[0,0.5],[1,0.5]];portConstraint=eastwest;fontSize=12;whiteSpace=wrap;html=1;align=center;" vertex="1" parent="1">
          <mxGeometry x="810" y="270" width="40" height="30" as="geometry" />
        </mxCell>
        <mxCell id="5LKG15U1SQsA1e3KRrMz-68" value="N:M:P" style="text;strokeColor=none;fillColor=none;spacingLeft=4;spacingRight=4;overflow=hidden;rotatable=0;points=[[0,0.5],[1,0.5]];portConstraint=eastwest;fontSize=12;whiteSpace=wrap;html=1;align=center;" vertex="1" parent="1">
          <mxGeometry x="735" y="240" width="50" height="30" as="geometry" />
        </mxCell>
        <mxCell id="5LKG15U1SQsA1e3KRrMz-69" value="" style="verticalLabelPosition=bottom;verticalAlign=top;html=1;shape=mxgraph.basic.arc;startAngle=0.3;endAngle=0.6894405292045782;" vertex="1" parent="1">
          <mxGeometry x="1025" y="270" width="100" height="100" as="geometry" />
        </mxCell>
        <mxCell id="5LKG15U1SQsA1e3KRrMz-70" value="(0,1)" style="text;strokeColor=none;fillColor=none;spacingLeft=4;spacingRight=4;overflow=hidden;rotatable=0;points=[[0,0.5],[1,0.5]];portConstraint=eastwest;fontSize=12;whiteSpace=wrap;html=1;align=center;" vertex="1" parent="1">
          <mxGeometry x="960" y="370" width="40" height="30" as="geometry" />
        </mxCell>
        <mxCell id="5LKG15U1SQsA1e3KRrMz-71" value="(0,1)" style="text;strokeColor=none;fillColor=none;spacingLeft=4;spacingRight=4;overflow=hidden;rotatable=0;points=[[0,0.5],[1,0.5]];portConstraint=eastwest;fontSize=12;whiteSpace=wrap;html=1;align=center;" vertex="1" parent="1">
          <mxGeometry x="1160" y="370" width="40" height="30" as="geometry" />
        </mxCell>
        <mxCell id="5LKG15U1SQsA1e3KRrMz-72" value="(1,1)" style="text;strokeColor=none;fillColor=none;spacingLeft=4;spacingRight=4;overflow=hidden;rotatable=0;points=[[0,0.5],[1,0.5]];portConstraint=eastwest;fontSize=12;whiteSpace=wrap;html=1;" vertex="1" parent="1">
          <mxGeometry x="950" y="270" width="40" height="30" as="geometry" />
        </mxCell>
      </root>
    </mxGraphModel>
  </diagram>
</mxfile>
